<?xml version="1.0" encoding="utf-8"?>
<svg viewBox="0 0 500 500" xmlns="http://www.w3.org/2000/svg">
  <circle style="fill: rgb(216, 216, 216);" cx="248.92" cy="249.863" r="171.795"/>
  <path d="M 183.793 280.699 C 176.793 268.834 176.375 247.436 186.782 229.784 C 187.329 228.856 190.808 220.614 205.818 209.231 C 211.143 205.194 218.369 201.057 224.809 197.106 C 244.751 184.874 291.798 150.486 272.057 126.903 C 261.4 114.171 237.546 126.164 226.305 140.417 C 218.257 150.621 214.548 159.505 212.436 170.082 C 208.111 191.744 209.97 210.688 209.958 234.577 C 209.948 251.918 210.376 268.773 210.714 281.513 C 210.821 285.539 211.752 311.865 212.26 313.181 C 212.51 313.824 215.516 271.875 215.798 267.287 C 216.908 249.198 218.479 239.459 226.701 226.03 C 231.65 217.949 247.175 207.042 257.15 208.537 C 281.757 212.226 273.317 240.264 263.901 253.633 C 258.854 260.799 249.411 271.099 238.507 272.83 C 234.877 273.406 227.473 273.856 224.483 271.645 C 223.203 270.697 231.483 284.126 244.742 287.372 C 248.211 288.221 255.213 287.883 259.858 285.683 C 268.182 281.743 279.568 269.775 285.861 249.276 C 286.085 248.545 285.908 302.797 285.621 308.446 C 284.171 336.97 279.909 363.092 265.193 368.682 C 249.566 374.619 239.864 360.361 237.994 357.425 C 236.696 355.385 232.935 350.591 228.786 335.488" style="fill: none; paint-order: fill markers; stroke-linecap: round; stroke-linejoin: round; stroke: rgb(0, 0, 0); stroke-width: 5px;" transform="matrix(0.999862, 0.016589, -0.016589, 0.999862, 4.109773, -3.820517)"/>
</svg>